<?xml version="1.0" standalone="no"?>
<!DOCTYPE svg PUBLIC "-//W3C//DTD SVG 20010904//EN"
 "http://www.w3.org/TR/2001/REC-SVG-20010904/DTD/svg10.dtd">
<svg version="1.0" xmlns="http://www.w3.org/2000/svg"
 width="700.000000pt" height="700.000000pt" viewBox="0 0 700.000000 700.000000"
 preserveAspectRatio="xMidYMid meet">
<metadata>
Created by potrace 1.11, written by Peter Selinger 2001-2013
</metadata>
<g transform="translate(0.000000,700.000000) scale(0.100000,-0.100000)"
fill="#000000" stroke="none">
<path d="M3261 6810 c-486 -38 -964 -181 -1373 -410 -51 -29 -157 -95 -236
-148 -131 -87 -143 -98 -137 -120 20 -79 23 -72 -76 -152 -129 -104 -325 -302
-442 -446 -670 -830 -889 -1920 -591 -2948 97 -333 285 -711 494 -993 490
-663 1198 -1109 2000 -1262 384 -73 829 -71 1221 5 777 151 1469 585 1953
1224 350 464 563 997 631 1585 22 186 22 524 0 710 -102 876 -530 1643 -1223
2189 l-83 65 47 30 47 29 -39 24 c-158 99 -332 203 -404 241 -340 183 -765
315 -1169 362 -160 19 -472 26 -620 15z m534 -381 c255 -22 537 -91 790 -191
55 -22 104 -42 108 -45 5 -3 -33 -28 -85 -55 -261 -140 -475 -324 -687 -591
-38 -48 -71 -92 -73 -99 -3 -7 -19 -1 -43 15 -95 63 -236 71 -381 22 -40 -13
-121 -32 -181 -40 -214 -32 -297 -104 -325 -280 -26 -170 53 -344 196 -425 28
-17 47 -30 41 -30 -37 0 -321 54 -372 71 -251 83 -455 364 -753 1038 -63 142
-78 186 -68 193 55 36 242 134 328 173 473 213 961 292 1505 244z m-103 -2123
c59 -152 188 -252 341 -263 89 -7 156 11 242 62 l60 37 70 -32 c144 -66 236
-100 301 -112 62 -12 69 -16 105 -62 22 -27 74 -106 116 -175 191 -314 263
-406 373 -477 67 -44 69 -51 57 -157 -8 -74 -36 -170 -104 -355 -43 -118 -48
-125 -105 -174 -80 -70 -175 -183 -298 -358 -115 -163 -170 -231 -248 -308
-71 -70 -220 -189 -307 -245 -77 -49 -255 -141 -261 -134 -2 2 31 78 75 168
129 266 183 453 184 634 1 195 -38 280 -204 445 -216 216 -293 374 -292 605 0
97 4 122 33 210 61 182 39 296 -78 415 l-64 65 -19 111 c-10 61 -23 123 -28
137 -9 24 -8 25 11 18 12 -4 29 -27 40 -55z"/>
</g>
</svg>
