<svg width="19" height="19" viewBox="0 0 19 19" fill="none" xmlns="http://www.w3.org/2000/svg">
<path d="M9.5 18C14.1944 18 18 14.1944 18 9.5C18 4.80558 14.1944 1 9.5 1C4.80558 1 1 4.80558 1 9.5C1 14.1944 4.80558 18 9.5 18Z" fill="#17233E" stroke="#17233E" stroke-width="0.5"/>
<path d="M13.8629 2.31486C13.8947 2.30383 13.9211 2.28619 13.9475 2.26851C13.9506 2.26647 13.9536 2.26443 13.9567 2.2624C12.6606 1.46252 11.1344 1 9.49949 1C7.70159 1 6.0353 1.55953 4.66211 2.51212C4.66944 2.54612 4.67882 2.57983 4.69376 2.61207C4.77951 2.79683 4.86889 3.00064 4.96308 3.21542C5.50572 4.45278 6.20787 6.05385 7.2933 6.47019C7.57853 6.57953 7.85382 6.61955 8.12518 6.659C8.44301 6.70521 8.75544 6.75063 9.07214 6.90574C9.13487 6.93622 9.22661 7.00774 9.26588 7.06548C9.41 7.27628 9.44444 7.53447 9.47489 7.76272C9.50748 8.00704 9.53549 8.21706 9.68854 8.29798C9.92273 8.42167 10.0558 8.67462 9.95585 8.91995C9.54756 9.92178 9.90075 11.0675 10.8504 11.8539C11.5187 12.4073 10.9624 13.6899 10.4002 14.697C10.1991 15.0572 10.5576 15.4732 10.946 15.3351C11.5603 15.1164 12.0688 14.7996 12.6577 14.2931C13.0647 13.9431 13.3197 13.5781 13.5668 13.2243C13.8379 12.8361 14.0996 12.4615 14.5423 12.1353C14.5517 12.1286 14.5587 12.1201 14.5626 12.1089C14.5951 12.0134 14.6381 11.9008 14.6852 11.7772C14.9507 11.0809 15.3488 10.0372 14.7727 9.73771C14.4075 9.54799 14.1741 9.15079 13.9234 8.72404C13.7395 8.41106 13.5463 8.08219 13.2849 7.80762C13.214 7.73317 13.1132 7.69624 13.0112 7.68305C12.7119 7.64449 12.4777 7.53124 12.2725 7.43198C11.9582 7.28003 11.7118 7.16087 11.4035 7.39259C11.0219 7.67953 10.5928 7.50485 10.4597 7.04614C10.4163 6.89666 10.3398 6.76329 10.0652 6.67859C9.85649 6.6144 9.75507 6.37786 9.83011 6.17298C9.83032 6.17247 9.83051 6.17194 9.83071 6.17141C9.8316 6.16892 9.83237 6.16631 9.83333 6.1639C9.93387 5.89014 9.36759 5.93176 9.07976 5.97983C9.03693 5.98699 9.09417 5.89839 9.14371 5.8217C9.1874 5.75407 9.2251 5.69571 9.18294 5.72043C8.82887 5.92941 8.38951 5.5686 8.40826 5.15797C8.42636 4.7684 8.49548 4.76064 9.0886 4.69411C9.1296 4.68951 9.17311 4.68463 9.21928 4.67933C9.9878 4.32145 10.3597 4.58231 10.3351 5.46133C10.8102 5.53167 10.9761 5.32181 10.8331 4.83145C10.7912 4.68812 10.8249 4.52838 10.9158 4.41026C11.7916 3.27126 12.5229 2.77474 13.8629 2.31486Z" fill="white"/>
<path d="M13.8629 2.31486C13.8947 2.30383 13.9211 2.28619 13.9475 2.26851C13.9506 2.26647 13.9536 2.26443 13.9567 2.2624C12.6606 1.46252 11.1344 1 9.49949 1C7.70159 1 6.0353 1.55953 4.66211 2.51212C4.66944 2.54612 4.67882 2.57983 4.69376 2.61207C4.77951 2.79683 4.86889 3.00064 4.96308 3.21542C5.50572 4.45278 6.20787 6.05385 7.2933 6.47019C7.57853 6.57953 7.85382 6.61955 8.12518 6.659C8.44301 6.70521 8.75544 6.75063 9.07214 6.90574C9.13487 6.93622 9.22661 7.00774 9.26588 7.06548C9.41 7.27628 9.44444 7.53447 9.47489 7.76272C9.50748 8.00704 9.53549 8.21706 9.68854 8.29798C9.92273 8.42167 10.0558 8.67462 9.95585 8.91995C9.54756 9.92178 9.90075 11.0675 10.8504 11.8539C11.5187 12.4073 10.9624 13.6899 10.4002 14.697C10.1991 15.0572 10.5576 15.4732 10.946 15.3351C11.5603 15.1164 12.0688 14.7996 12.6577 14.2931C13.0647 13.9431 13.3197 13.5781 13.5668 13.2243C13.8379 12.8361 14.0996 12.4615 14.5423 12.1353C14.5517 12.1286 14.5587 12.1201 14.5626 12.1089C14.5951 12.0134 14.6381 11.9008 14.6852 11.7772C14.9507 11.0809 15.3488 10.0372 14.7727 9.73771C14.4075 9.54799 14.1741 9.15079 13.9234 8.72404C13.7395 8.41106 13.5463 8.08219 13.2849 7.80762C13.214 7.73317 13.1132 7.69624 13.0112 7.68305C12.7119 7.64449 12.4777 7.53124 12.2725 7.43198C11.9582 7.28003 11.7118 7.16087 11.4035 7.39259C11.0219 7.67953 10.5928 7.50485 10.4597 7.04614C10.4163 6.89666 10.3398 6.76329 10.0652 6.67859C9.85649 6.6144 9.75507 6.37786 9.83011 6.17298C9.83032 6.17247 9.83051 6.17194 9.83071 6.17141C9.8316 6.16892 9.83237 6.16631 9.83333 6.1639C9.93387 5.89014 9.36759 5.93176 9.07976 5.97983C9.03693 5.98699 9.09417 5.89839 9.14371 5.8217C9.1874 5.75407 9.2251 5.69571 9.18294 5.72043C8.82887 5.92941 8.38951 5.5686 8.40826 5.15797C8.42636 4.7684 8.49548 4.76064 9.0886 4.69411C9.1296 4.68951 9.17311 4.68463 9.21928 4.67933C9.9878 4.32145 10.3597 4.58231 10.3351 5.46133C10.8102 5.53167 10.9761 5.32181 10.8331 4.83145C10.7912 4.68812 10.8249 4.52838 10.9158 4.41026C11.7916 3.27126 12.5229 2.77474 13.8629 2.31486Z" stroke="#17233E"/>
</svg>
